<svg width="398" height="188" viewBox="0 0 398 188" fill="none" xmlns="http://www.w3.org/2000/svg">
<path d="M76.1165 22.1136L75.1206 22.2042L75.2033 23.1136H76.1165V22.1136ZM73.0824 16.2841L72.4601 17.067L72.4712 17.0756L73.0824 16.2841ZM60.0256 15.0227L59.6617 14.0913H59.6617L60.0256 15.0227ZM56.7528 17.375L57.5551 17.972L57.5616 17.9632L56.7528 17.375ZM55.6278 20.75L56.6269 20.7934L56.6275 20.7807L56.6277 20.7679L55.6278 20.75ZM56.2415 23.5114L55.3732 24.0075L55.3785 24.0167L55.384 24.0259L56.2415 23.5114ZM58.2869 25.625L57.7177 26.4472L57.7297 26.4555L57.7419 26.4634L58.2869 25.625ZM61.5597 27.1932L61.896 26.2514L61.5597 27.1932ZM65.8551 28.3864L66.0768 27.4112L66.0646 27.4086L65.8551 28.3864ZM71.8551 29.75L71.6335 30.7252L71.643 30.7272L71.8551 29.75ZM80.9915 32.75L80.5631 33.6536L80.5661 33.655L80.9915 32.75ZM87.6733 37.2159L86.98 37.9366L86.9846 37.9409L87.6733 37.2159ZM91.7983 43.1818L90.8744 43.5644L91.7983 43.1818ZM93.2301 50.75L94.2302 50.7552L94.2301 50.7419L93.2301 50.75ZM89.8892 62.1023L89.0691 61.53H89.0691L89.8892 62.1023ZM80.3778 69.3636L80.0012 68.4373L79.9994 68.438L80.3778 69.3636ZM50.2074 69.2614L50.5813 68.3339L50.2074 69.2614ZM36.3665 47.75V46.75H35.3539L35.3666 47.7625L36.3665 47.75ZM52.5256 47.75L53.5237 47.6895L53.4668 46.75H52.5256V47.75ZM54.3324 53.375L53.5178 53.9551L54.3324 53.375ZM58.7301 56.7841L58.3471 57.7078L58.351 57.7095L58.7301 56.7841ZM71.071 57.0227L70.7156 56.088L70.7112 56.0897L71.071 57.0227ZM74.7869 54.4659L74.0029 53.8452H74.0029L74.7869 54.4659ZM76.1165 50.7159L77.1163 50.732L77.1166 50.7154L77.1163 50.6987L76.1165 50.7159ZM74.8892 47.3409L74.1209 47.9811L74.1286 47.9902L74.8892 47.3409ZM71.2074 44.8864L70.8119 45.8048L70.8196 45.8081L70.8273 45.8113L71.2074 44.8864ZM64.9347 42.9432L64.7071 43.917L64.7085 43.9173L64.9347 42.9432ZM57.6392 41.2386L57.8667 40.2649L57.8627 40.2639L57.6392 41.2386ZM43.3551 34.5227L42.688 35.2677L42.6908 35.2701L43.3551 34.5227ZM38.1733 21.9091L39.1733 21.9134L39.1733 21.9038L38.1733 21.9091ZM41.6506 10.5568L40.8391 9.97236L41.6506 10.5568ZM51.3665 2.95455L51.7689 3.87001V3.87001L51.3665 2.95455ZM79.5938 2.98863L79.1737 3.89616L79.1799 3.899L79.5938 2.98863ZM88.9006 10.6591L89.7317 10.1031H89.7317L88.9006 10.6591ZM92.2756 22.1136V23.1136H93.2861L93.2755 22.1032L92.2756 22.1136ZM77.1124 22.0231C76.8629 19.2789 75.7339 17.0681 73.6936 15.4926L72.4712 17.0756C74.0218 18.2728 74.9155 19.9484 75.1206 22.2042L77.1124 22.0231ZM73.7046 15.5013C71.6902 13.9001 68.9019 13.1705 65.4801 13.1705V15.1705C68.6492 15.1705 70.9291 15.8499 72.4601 17.0669L73.7046 15.5013ZM65.4801 13.1705C63.2196 13.1705 61.2684 13.4637 59.6617 14.0913L60.3894 15.9542C61.6918 15.4454 63.377 15.1705 65.4801 15.1705V13.1705ZM59.6617 14.0913C58.0757 14.7108 56.81 15.5963 55.9441 16.7868L57.5616 17.9632C58.1502 17.1537 59.0664 16.471 60.3894 15.9542L59.6617 14.0913ZM55.9506 16.778C55.0927 17.9308 54.6543 19.2605 54.628 20.7321L56.6277 20.7679C56.6469 19.6941 56.9584 18.7738 57.5551 17.972L55.9506 16.778ZM54.6288 20.7066C54.5763 21.9131 54.8123 23.0258 55.3732 24.0075L57.1097 23.0152C56.7616 22.406 56.5884 21.6778 56.6269 20.7934L54.6288 20.7066ZM55.384 24.0259C55.9453 24.9614 56.7333 25.7657 57.7177 26.4472L58.8561 24.8028C58.0678 24.2571 57.4922 23.6522 57.099 22.9969L55.384 24.0259ZM57.7419 26.4634C58.73 27.1057 59.8944 27.6603 61.2233 28.1349L61.896 26.2514C60.6795 25.817 59.662 25.3261 58.8319 24.7866L57.7419 26.4634ZM61.2233 28.1349C62.5448 28.6069 64.02 29.0158 65.6456 29.3642L66.0646 27.4086C64.5084 27.0751 63.12 26.6886 61.896 26.2514L61.2233 28.1349ZM65.6335 29.3615L71.6335 30.7251L72.0767 28.7749L66.0767 27.4112L65.6335 29.3615ZM71.643 30.7272C75.0379 31.4643 78.0084 32.4423 80.5631 33.6536L81.4199 31.8464C78.7018 30.5577 75.5814 29.5357 72.0673 28.7728L71.643 30.7272ZM80.5661 33.655C83.1437 34.8667 85.2758 36.2971 86.98 37.9366L88.3666 36.4953C86.4798 34.6801 84.1575 33.1333 81.4169 31.845L80.5661 33.655ZM86.9846 37.9409C88.7043 39.5747 89.9977 41.4477 90.8744 43.5644L92.7222 42.7992C91.7352 40.416 90.2786 38.3116 88.362 36.4909L86.9846 37.9409ZM90.8744 43.5644C91.7503 45.6794 92.2083 48.0724 92.2301 50.7581L94.2301 50.7419C94.2065 47.8367 93.7099 45.1842 92.7222 42.7992L90.8744 43.5644ZM92.2301 50.7448C92.2083 54.9813 91.1413 58.5606 89.0691 61.53L90.7093 62.6745C93.0462 59.3258 94.2065 55.3368 94.2301 50.7552L92.2301 50.7448ZM89.0691 61.53C86.9918 64.5068 83.9878 66.8164 80.0012 68.4373L80.7545 70.29C85.0406 68.5473 88.3775 66.0159 90.7093 62.6745L89.0691 61.53ZM79.9994 68.438C76.0368 70.0581 71.2067 70.8864 65.4801 70.8864V72.8864C71.3899 72.8864 76.4916 72.0328 80.7563 70.2893L79.9994 68.438ZM65.4801 70.8864C59.7367 70.8864 54.7779 70.0257 50.5813 68.3339L49.8335 70.1888C54.3187 71.997 59.5417 72.8864 65.4801 72.8864V70.8864ZM50.5813 68.3339C46.4084 66.6516 43.1989 64.113 40.9112 60.7245L39.2536 61.8437C41.784 65.5915 45.3245 68.3711 49.8335 70.1888L50.5813 68.3339ZM40.9112 60.7245C38.6371 57.3563 37.4328 53.0488 37.3664 47.7375L35.3666 47.7625C35.4365 53.3603 36.7095 58.0755 39.2536 61.8437L40.9112 60.7245ZM36.3665 48.75H52.5256V46.75H36.3665V48.75ZM51.5274 47.8105C51.6726 50.2055 52.3189 52.2715 53.5178 53.9551L55.147 52.7949C54.2095 51.4785 53.6513 49.7945 53.5237 47.6895L51.5274 47.8105ZM53.5178 53.9551C54.7051 55.6223 56.3274 56.8704 58.3471 57.7078L59.1131 55.8604C57.4056 55.1523 56.0961 54.1277 55.147 52.7949L53.5178 53.9551ZM58.351 57.7095C60.3806 58.5408 62.6955 58.9432 65.2756 58.9432V56.9432C62.901 56.9432 60.8524 56.5728 59.1092 55.8587L58.351 57.7095ZM65.2756 58.9432C67.6328 58.9432 69.694 58.6257 71.4309 57.9557L70.7112 56.0897C69.2663 56.647 67.4638 56.9432 65.2756 56.9432V58.9432ZM71.4265 57.9574C73.1684 57.295 74.5714 56.3493 75.571 55.0866L74.0029 53.8452C73.2752 54.7644 72.201 55.5232 70.7156 56.088L71.4265 57.9574ZM75.571 55.0866C76.5729 53.821 77.0901 52.3578 77.1163 50.732L75.1166 50.6998C75.0974 51.8922 74.7282 52.929 74.0029 53.8452L75.571 55.0866ZM77.1163 50.6987C77.0899 49.1674 76.6078 47.8139 75.6498 46.6916L74.1286 47.9902C74.7615 48.7316 75.0976 49.6281 75.1166 50.7331L77.1163 50.6987ZM75.6574 46.7007C74.7218 45.5779 73.3349 44.6795 71.5875 43.9614L70.8273 45.8113C72.3981 46.4568 73.4657 47.1948 74.121 47.9811L75.6574 46.7007ZM71.6028 43.9679C69.893 43.2317 67.7401 42.5678 65.1608 41.9691L64.7085 43.9173C67.2202 44.5003 69.2491 45.132 70.8119 45.8048L71.6028 43.9679ZM65.1622 41.9694L57.8667 40.2649L57.4117 42.2124L64.7071 43.917L65.1622 41.9694ZM57.8627 40.2639C51.9285 38.9031 47.3363 36.7236 44.0195 33.7753L42.6908 35.2701C46.3284 38.5036 51.259 40.8015 57.4157 42.2133L57.8627 40.2639ZM44.0222 33.7777C40.7878 30.8815 39.1516 26.9657 39.1733 21.9134L37.1733 21.9048C37.1495 27.4434 38.9679 31.9366 42.688 35.2677L44.0222 33.7777ZM39.1733 21.9038C39.1516 17.7797 40.2546 14.2059 42.462 11.1413L40.8391 9.97236C38.3647 13.4077 37.1496 17.4021 37.1733 21.9144L39.1733 21.9038ZM42.462 11.1413C44.6857 8.05399 47.7746 5.62575 51.7689 3.87001L50.9641 2.03908C46.6857 3.91971 43.2973 6.55964 40.8391 9.97236L42.462 11.1413ZM51.7689 3.87001C55.7585 2.11633 60.3337 1.22727 65.5142 1.22727V-0.77273C60.1038 -0.77273 55.2472 0.156391 50.9641 2.03908L51.7689 3.87001ZM65.5142 1.22727C70.8114 1.22727 75.3552 2.1287 79.1737 3.89614L80.0138 2.08113C75.8778 0.166746 71.0352 -0.77273 65.5142 -0.77273V1.22727ZM79.1799 3.899C83.0295 5.64879 85.9793 8.0907 88.0694 11.2151L89.7317 10.1031C87.4128 6.63658 84.158 3.96485 80.0076 2.07827L79.1799 3.899ZM88.0694 11.2151C90.1557 14.3337 91.232 17.9584 91.2756 22.1241L93.2755 22.1032C93.2282 17.5871 92.0546 13.5754 89.7317 10.1031L88.0694 11.2151ZM92.2756 21.1136H76.1165V23.1136H92.2756V21.1136ZM99.4688 14.8864H98.4688V15.8864H99.4688V14.8864ZM99.4688 1.18182V0.181816H98.4688V1.18182H99.4688ZM158.48 1.18182H159.48V0.181816H158.48V1.18182ZM158.48 14.8864V15.8864H159.48V14.8864H158.48ZM137.31 14.8864V13.8864H136.31V14.8864H137.31ZM137.31 71V72H138.31V71H137.31ZM120.673 71H119.673V72H120.673V71ZM120.673 14.8864H121.673V13.8864H120.673V14.8864ZM100.469 14.8864V1.18182H98.4688V14.8864H100.469ZM99.4688 2.18182H158.48V0.181816H99.4688V2.18182ZM157.48 1.18182V14.8864H159.48V1.18182H157.48ZM158.48 13.8864H137.31V15.8864H158.48V13.8864ZM136.31 14.8864V71H138.31V14.8864H136.31ZM137.31 70H120.673V72H137.31V70ZM121.673 71V14.8864H119.673V71H121.673ZM120.673 13.8864H99.4688V15.8864H120.673V13.8864ZM225 55.625L224.125 55.1409L225 55.625ZM213 67.7955L212.518 66.9191L212.517 66.92L213 67.7955ZM179.148 67.7614L179.634 66.8876L179.148 67.7614ZM167.182 55.5909L166.305 56.0721L166.308 56.0766L167.182 55.5909ZM167.182 16.5568L166.307 16.0728L166.305 16.0756L167.182 16.5568ZM179.148 4.38636L179.631 5.26182L179.148 4.38636ZM213 4.38636L212.517 5.26183L212.518 5.26274L213 4.38636ZM225 16.5568L224.125 17.0409L225 16.5568ZM210.239 24.5682L209.312 24.9442L209.314 24.9499L210.239 24.5682ZM204.716 17.4432L204.156 18.2716L204.159 18.274L204.716 17.4432ZM187.466 17.4432L188.022 18.274L187.466 17.4432ZM181.909 24.5682L180.985 24.1864L180.982 24.1922L181.909 24.5682ZM181.909 47.6136L180.982 47.9897L180.985 47.9954L181.909 47.6136ZM187.466 54.7386L188.022 53.9078L187.466 54.7386ZM204.716 54.7386L204.159 53.9078L204.156 53.9102L204.716 54.7386ZM210.239 47.6136L209.314 47.2319L209.312 47.2376L210.239 47.6136ZM228.432 36.0909C228.432 43.6464 226.979 49.9818 224.125 55.1409L225.875 56.1091C228.93 50.5864 230.432 43.899 230.432 36.0909H228.432ZM224.125 55.1409C221.256 60.327 217.388 64.2429 212.518 66.9191L213.482 68.6718C218.703 65.8026 222.835 61.6049 225.875 56.1091L224.125 55.1409ZM212.517 66.92C207.655 69.6039 202.187 70.9545 196.091 70.9545V72.9545C202.494 72.9545 208.3 71.5325 213.483 68.6709L212.517 66.92ZM196.091 70.9545C189.972 70.9545 184.495 69.5928 179.634 66.8876L178.661 68.6351C183.846 71.5208 189.664 72.9545 196.091 72.9545V70.9545ZM179.634 66.8876C174.784 64.1882 170.925 60.2704 168.056 55.1053L166.308 56.0766C169.347 61.5478 173.466 65.7436 178.661 68.6351L179.634 66.8876ZM168.058 55.1097C165.226 49.9495 163.784 43.6242 163.784 36.0909H161.784C161.784 43.8757 163.274 50.5505 166.305 56.0721L168.058 55.1097ZM163.784 36.0909C163.784 28.5343 165.226 22.1978 168.058 17.038L166.305 16.0756C163.274 21.5976 161.784 28.2839 161.784 36.0909H163.784ZM168.057 17.0409C170.926 11.8537 174.784 7.93768 179.631 5.26182L178.664 3.5109C173.466 6.3805 169.346 10.5781 166.307 16.0728L168.057 17.0409ZM179.631 5.26182C184.492 2.57826 189.971 1.22727 196.091 1.22727V-0.77273C189.665 -0.77273 183.849 0.649006 178.664 3.5109L179.631 5.26182ZM196.091 1.22727C202.187 1.22727 207.655 2.57796 212.517 5.26182L213.483 3.5109C208.3 0.649303 202.494 -0.77273 196.091 -0.77273V1.22727ZM212.518 5.26274C217.388 7.93892 221.256 11.8549 224.125 17.0409L225.875 16.0728C222.835 10.5769 218.703 6.37926 213.482 3.50998L212.518 5.26274ZM224.125 17.0409C226.979 22.2001 228.432 28.5354 228.432 36.0909H230.432C230.432 28.2828 228.93 21.5954 225.875 16.0728L224.125 17.0409ZM213.182 36.0909C213.182 31.4564 212.522 27.4774 211.163 24.1864L209.314 24.9499C210.546 27.9317 211.182 31.6345 211.182 36.0909H213.182ZM211.165 24.1922C209.83 20.9024 207.874 18.3549 205.272 16.6123L204.159 18.274C206.376 19.7588 208.102 21.9613 209.312 24.9442L211.165 24.1922ZM205.276 16.6148C202.698 14.8715 199.62 14.0227 196.091 14.0227V16.0227C199.289 16.0227 201.961 16.7876 204.156 18.2716L205.276 16.6148ZM196.091 14.0227C192.583 14.0227 189.507 14.8723 186.909 16.6123L188.022 18.274C190.243 16.7867 192.917 16.0227 196.091 16.0227V14.0227ZM186.909 16.6123C184.31 18.3537 182.343 20.8991 180.985 24.1864L182.833 24.9499C184.066 21.9645 185.804 19.7599 188.022 18.274L186.909 16.6123ZM180.982 24.1922C179.648 27.4813 179 31.4582 179 36.0909H181C181 31.6327 181.625 27.9278 182.836 24.9442L180.982 24.1922ZM179 36.0909C179 40.7236 179.648 44.7005 180.982 47.9897L182.836 47.2376C181.625 44.254 181 40.5491 181 36.0909H179ZM180.985 47.9954C182.343 51.2827 184.31 53.8281 186.909 55.5695L188.022 53.9078C185.804 52.4219 184.066 50.2173 182.833 47.2319L180.985 47.9954ZM186.909 55.5695C189.507 57.3095 192.583 58.1591 196.091 58.1591V56.1591C192.917 56.1591 190.243 55.3951 188.022 53.9078L186.909 55.5695ZM196.091 58.1591C199.62 58.1591 202.698 57.3103 205.276 55.567L204.156 53.9102C201.961 55.3943 199.289 56.1591 196.091 56.1591V58.1591ZM205.272 55.5695C207.874 53.827 209.83 51.2794 211.165 47.9897L209.312 47.2376C208.102 50.2206 206.376 52.423 204.159 53.9078L205.272 55.5695ZM211.163 47.9954C212.522 44.7044 213.182 40.7254 213.182 36.0909H211.182C211.182 40.5473 210.546 44.2501 209.314 47.2319L211.163 47.9954ZM239.284 71H238.284V72H239.284V71ZM239.284 1.18182V0.181816H238.284V1.18182H239.284ZM281.659 4.01136L281.214 4.90688L281.22 4.91003L281.659 4.01136ZM290.489 12.0568L289.628 12.5655L289.629 12.568L290.489 12.0568ZM290.42 36.7727L291.267 37.3048L291.269 37.3022L290.42 36.7727ZM281.42 44.4773L281.831 45.3891L281.835 45.3871L281.42 44.4773ZM249.375 47.1023H248.375V48.1023H249.375V47.1023ZM249.375 33.8068V32.8068H248.375V33.8068H249.375ZM270.852 32.8182L271.213 33.7509L271.219 33.7483L270.852 32.8182ZM274.773 29.75L275.611 30.295L275.615 30.2887L274.773 29.75ZM274.773 19.0795L273.922 19.6059L273.926 19.612L274.773 19.0795ZM270.852 15.875L270.464 16.7967L270.475 16.8009L270.852 15.875ZM256.159 14.7841V13.7841H255.159V14.7841H256.159ZM256.159 71V72H257.159V71H256.159ZM278.591 39.0909L279.469 38.6124L279.185 38.0909H278.591V39.0909ZM295.977 71V72H297.661L296.855 70.5215L295.977 71ZM277.568 71L276.686 71.4712L276.969 72H277.568V71ZM260.523 39.0909V38.0909H258.855L259.641 39.5621L260.523 39.0909ZM240.284 71V1.18182H238.284V71H240.284ZM239.284 2.18182H268.125V0.181816H239.284V2.18182ZM268.125 2.18182C273.233 2.18182 277.585 3.1034 281.214 4.90686L282.104 3.11587C278.142 1.1466 273.471 0.181816 268.125 0.181816V2.18182ZM281.22 4.91003C284.871 6.6919 287.664 9.24189 289.628 12.5655L291.35 11.5481C289.177 7.87174 286.083 5.0581 282.098 3.1127L281.22 4.91003ZM289.629 12.568C291.59 15.8648 292.591 19.8064 292.591 24.4318H294.591C294.591 19.5118 293.524 15.2034 291.348 11.5456L289.629 12.568ZM292.591 24.4318C292.591 29.1255 291.567 33.0465 289.572 36.2432L291.269 37.3022C293.501 33.7262 294.591 29.4199 294.591 24.4318H292.591ZM289.574 36.2407C287.572 39.4264 284.728 41.8694 281.005 43.5675L281.835 45.3871C285.886 43.5397 289.042 40.8464 291.267 37.3048L289.574 36.2407ZM281.01 43.5655C277.28 45.2448 272.824 46.1023 267.614 46.1023V48.1023C273.039 48.1023 277.788 47.2097 281.831 45.3891L281.01 43.5655ZM267.614 46.1023H249.375V48.1023H267.614V46.1023ZM250.375 47.1023V33.8068H248.375V47.1023H250.375ZM249.375 34.8068H264.477V32.8068H249.375V34.8068ZM264.477 34.8068C267.101 34.8068 269.358 34.4682 271.213 33.7509L270.492 31.8855C268.938 32.4863 266.944 32.8068 264.477 32.8068V34.8068ZM271.219 33.7483C273.112 33.0014 274.596 31.8569 275.611 30.295L273.934 29.205C273.177 30.3704 272.048 31.2713 270.485 31.888L271.219 33.7483ZM275.615 30.2887C276.632 28.6984 277.102 26.7233 277.102 24.4318H275.102C275.102 26.4585 274.686 28.0289 273.93 29.2113L275.615 30.2887ZM277.102 24.4318C277.102 22.1394 276.632 20.1566 275.619 18.5471L273.926 19.612C274.687 20.8207 275.102 22.4061 275.102 24.4318H277.102ZM275.623 18.5532C274.613 16.9222 273.131 15.7244 271.23 14.9491L270.475 16.8009C272.028 17.4346 273.159 18.3732 273.922 19.6059L275.623 18.5532ZM271.24 14.9534C269.356 14.1598 267.09 13.7841 264.477 13.7841V15.7841C266.91 15.7841 268.894 16.1356 270.464 16.7966L271.24 14.9534ZM264.477 13.7841H256.159V15.7841H264.477V13.7841ZM255.159 14.7841V71H257.159V14.7841H255.159ZM256.159 70H239.284V72H256.159V70ZM277.713 39.5694L295.099 71.4785L296.855 70.5215L279.469 38.6124L277.713 39.5694ZM295.977 70H277.568V72H295.977V70ZM278.45 70.5288L261.405 38.6197L259.641 39.5621L276.686 71.4712L278.45 70.5288ZM260.523 40.0909H278.591V38.0909H260.523V40.0909ZM296.276 1.18182V0.181816H294.586L295.399 1.66314L296.276 1.18182ZM315.128 1.18182L316.02 0.730858L315.743 0.181816H315.128V1.18182ZM329.889 30.3977L328.997 30.8487L329.274 31.3977H329.889V30.3977ZM330.503 30.3977V31.3977H331.118L331.395 30.8487L330.503 30.3977ZM345.264 1.18182V0.181816H344.649L344.372 0.730858L345.264 1.18182ZM364.116 1.18182L364.993 1.66314L365.806 0.181816H364.116V1.18182ZM338.582 47.6818L337.706 47.2005L337.582 47.4253V47.6818H338.582ZM338.582 71V72H339.582V71H338.582ZM321.81 71H320.81V72H321.81V71ZM321.81 47.6818H322.81V47.4253L322.686 47.2005L321.81 47.6818ZM296.276 2.18182H315.128V0.181816H296.276V2.18182ZM314.235 1.63277L328.997 30.8487L330.782 29.9468L316.02 0.730858L314.235 1.63277ZM329.889 31.3977H330.503V29.3977H329.889V31.3977ZM331.395 30.8487L346.157 1.63277L344.372 0.730858L329.61 29.9468L331.395 30.8487ZM345.264 2.18182H364.116V0.181816H345.264V2.18182ZM363.24 0.700489L337.706 47.2005L339.459 48.1631L364.993 1.66314L363.24 0.700489ZM337.582 47.6818V71H339.582V47.6818H337.582ZM338.582 70H321.81V72H338.582V70ZM322.81 71V47.6818H320.81V71H322.81ZM322.686 47.2005L297.152 0.700489L295.399 1.66314L320.933 48.1631L322.686 47.2005ZM0.1875 130.886H-0.8125V131.886H0.1875V130.886ZM0.1875 117.182V116.182H-0.8125V117.182H0.1875ZM59.1989 117.182H60.1989V116.182H59.1989V117.182ZM59.1989 130.886V131.886H60.1989V130.886H59.1989ZM38.0284 130.886V129.886H37.0284V130.886H38.0284ZM38.0284 187V188H39.0284V187H38.0284ZM21.392 187H20.392V188H21.392V187ZM21.392 130.886H22.392V129.886H21.392V130.886ZM1.1875 130.886V117.182H-0.8125V130.886H1.1875ZM0.1875 118.182H59.1989V116.182H0.1875V118.182ZM58.1989 117.182V130.886H60.1989V117.182H58.1989ZM59.1989 129.886H38.0284V131.886H59.1989V129.886ZM37.0284 130.886V187H39.0284V130.886H37.0284ZM38.0284 186H21.392V188H38.0284V186ZM22.392 187V130.886H20.392V187H22.392ZM21.392 129.886H0.1875V131.886H21.392V129.886ZM67.4403 187H66.4403V188H67.4403V187ZM67.4403 117.182V116.182H66.4403V117.182H67.4403ZM116.122 117.182H117.122V116.182H116.122V117.182ZM116.122 130.886V131.886H117.122V130.886H116.122ZM84.3153 130.886V129.886H83.3153V130.886H84.3153ZM84.3153 145.205H83.3153V146.205H84.3153V145.205ZM113.634 145.205H114.634V144.205H113.634V145.205ZM113.634 158.943V159.943H114.634V158.943H113.634ZM84.3153 158.943V157.943H83.3153V158.943H84.3153ZM84.3153 173.295H83.3153V174.295H84.3153V173.295ZM116.122 173.295H117.122V172.295H116.122V173.295ZM116.122 187V188H117.122V187H116.122ZM68.4403 187V117.182H66.4403V187H68.4403ZM67.4403 118.182H116.122V116.182H67.4403V118.182ZM115.122 117.182V130.886H117.122V117.182H115.122ZM116.122 129.886H84.3153V131.886H116.122V129.886ZM83.3153 130.886V145.205H85.3153V130.886H83.3153ZM84.3153 146.205H113.634V144.205H84.3153V146.205ZM112.634 145.205V158.943H114.634V145.205H112.634ZM113.634 157.943H84.3153V159.943H113.634V157.943ZM83.3153 158.943V173.295H85.3153V158.943H83.3153ZM84.3153 174.295H116.122V172.295H84.3153V174.295ZM115.122 173.295V187H117.122V173.295H115.122ZM116.122 186H67.4403V188H116.122V186ZM126.69 187H125.69V188H126.69V187ZM126.69 117.182V116.182H125.69V117.182H126.69ZM143.565 117.182H144.565V116.182H143.565V117.182ZM143.565 173.295H142.565V174.295H143.565V173.295ZM172.611 173.295H173.611V172.295H172.611V173.295ZM172.611 187V188H173.611V187H172.611ZM127.69 187V117.182H125.69V187H127.69ZM126.69 118.182H143.565V116.182H126.69V118.182ZM142.565 117.182V173.295H144.565V117.182H142.565ZM143.565 174.295H172.611V172.295H143.565V174.295ZM171.611 173.295V187H173.611V173.295H171.611ZM172.611 186H126.69V188H172.611V186ZM181.347 187H180.347V188H181.347V187ZM181.347 117.182V116.182H180.347V117.182H181.347ZM198.222 117.182H199.222V116.182H198.222V117.182ZM198.222 173.295H197.222V174.295H198.222V173.295ZM227.267 173.295H228.267V172.295H227.267V173.295ZM227.267 187V188H228.267V187H227.267ZM182.347 187V117.182H180.347V187H182.347ZM181.347 118.182H198.222V116.182H181.347V118.182ZM197.222 117.182V173.295H199.222V117.182H197.222ZM198.222 174.295H227.267V172.295H198.222V174.295ZM226.267 173.295V187H228.267V173.295H226.267ZM227.267 186H181.347V188H227.267V186ZM252.878 117.182H253.878V116.182H252.878V117.182ZM252.878 187V188H253.878V187H252.878ZM236.003 187H235.003V188H236.003V187ZM236.003 117.182V116.182H235.003V117.182H236.003ZM251.878 117.182V187H253.878V117.182H251.878ZM252.878 186H236.003V188H252.878V186ZM237.003 187V117.182H235.003V187H237.003ZM236.003 118.182H252.878V116.182H236.003V118.182ZM322.892 117.182H323.892V116.182H322.892V117.182ZM322.892 187V188H323.892V187H322.892ZM308.574 187L307.751 187.568L308.049 188H308.574V187ZM280.79 146.705L281.613 146.137L281.315 145.705H280.79V146.705ZM280.347 146.705V145.705H279.347V146.705H280.347ZM280.347 187V188H281.347V187H280.347ZM263.472 187H262.472V188H263.472V187ZM263.472 117.182V116.182H262.472V117.182H263.472ZM277.994 117.182L278.82 116.618L278.522 116.182H277.994V117.182ZM305.472 157.409L304.646 157.973L304.944 158.409H305.472V157.409ZM306.051 157.409V158.409H307.051V157.409H306.051ZM306.051 117.182V116.182H305.051V117.182H306.051ZM321.892 117.182V187H323.892V117.182H321.892ZM322.892 186H308.574V188H322.892V186ZM309.397 186.432L281.613 146.137L279.966 147.272L307.751 187.568L309.397 186.432ZM280.79 145.705H280.347V147.705H280.79V145.705ZM279.347 146.705V187H281.347V146.705H279.347ZM280.347 186H263.472V188H280.347V186ZM264.472 187V117.182H262.472V187H264.472ZM263.472 118.182H277.994V116.182H263.472V118.182ZM277.169 117.746L304.646 157.973L306.297 156.845L278.82 116.618L277.169 117.746ZM305.472 158.409H306.051V156.409H305.472V158.409ZM307.051 157.409V117.182H305.051V157.409H307.051ZM306.051 118.182H322.892V116.182H306.051V118.182ZM379.321 139.989L378.356 140.249L378.555 140.989H379.321V139.989ZM377.616 136.205L376.787 136.763L376.792 136.771L377.616 136.205ZM371.105 131.636L370.826 132.597L370.833 132.599L370.841 132.601L371.105 131.636ZM357.673 133.477L357.122 132.643L357.119 132.645L357.673 133.477ZM351.98 140.636L352.899 141.032L352.9 141.029L351.98 140.636ZM351.912 163.443L352.837 163.064L351.912 163.443ZM357.537 170.67L358.097 169.842L357.537 170.67ZM374.31 171.659L374.734 172.565L374.738 172.563L374.31 171.659ZM379.219 167.33L378.36 166.817L379.219 167.33ZM380.889 160.75L381.008 159.757L379.889 159.623V160.75H380.889ZM384.026 161.125V162.125L384.144 160.132L384.026 161.125ZM367.048 161.125H366.048V162.125H367.048V161.125ZM367.048 148.818V147.818H366.048V148.818H367.048ZM397.151 148.818H398.151V147.818H397.151V148.818ZM393.162 174.114L392.303 173.601L392.301 173.604L393.162 174.114ZM382.253 184.375L381.795 183.486L381.793 183.487L382.253 184.375ZM348.776 183.625L349.272 182.757L348.776 183.625ZM336.98 171.284L336.095 171.749L336.096 171.751L336.98 171.284ZM335.31 136.955L336.243 137.314L336.244 137.312L335.31 136.955ZM342.435 125.636L341.725 124.932L341.722 124.935L342.435 125.636ZM353.071 118.614L352.705 117.683L352.703 117.684L353.071 118.614ZM377.412 117.966L377.096 118.915L377.098 118.915L377.412 117.966ZM386.685 122.875L386.066 123.66L386.069 123.663L386.685 122.875ZM393.264 130.409L392.398 130.91L393.264 130.409ZM396.401 139.989V140.989H397.525L397.394 139.872L396.401 139.989ZM380.286 139.728C379.874 138.2 379.262 136.833 378.441 135.638L376.792 136.771C377.471 137.758 377.995 138.914 378.356 140.249L380.286 139.728ZM378.446 135.646C377.629 134.432 376.623 133.402 375.433 132.559L374.277 134.191C375.269 134.894 376.104 135.749 376.787 136.763L378.446 135.646ZM375.433 132.559C374.239 131.713 372.881 131.086 371.37 130.672L370.841 132.601C372.148 132.959 373.29 133.492 374.277 134.191L375.433 132.559ZM371.384 130.676C369.872 130.237 368.231 130.023 366.469 130.023V132.023C368.07 132.023 369.52 132.217 370.826 132.597L371.384 130.676ZM366.469 130.023C362.915 130.023 359.785 130.884 357.122 132.643L358.224 134.312C360.516 132.798 363.25 132.023 366.469 132.023V130.023ZM357.119 132.645C354.478 134.405 352.466 136.957 351.061 140.243L352.9 141.029C354.176 138.043 355.959 135.822 358.228 134.309L357.119 132.645ZM351.062 140.241C349.653 143.512 348.969 147.439 348.969 151.989H350.969C350.969 147.629 351.625 143.988 352.899 141.032L351.062 140.241ZM348.969 151.989C348.969 156.558 349.629 160.512 350.987 163.823L352.837 163.064C351.604 160.056 350.969 156.374 350.969 151.989H348.969ZM350.987 163.823C352.345 167.136 354.335 169.713 356.977 171.499L358.097 169.842C355.83 168.309 354.07 166.069 352.837 163.064L350.987 163.823ZM356.977 171.499C359.625 173.289 362.806 174.159 366.469 174.159V172.159C363.131 172.159 360.358 171.37 358.097 169.842L356.977 171.499ZM366.469 174.159C369.663 174.159 372.43 173.643 374.734 172.565L373.886 170.753C371.917 171.675 369.457 172.159 366.469 172.159V174.159ZM374.738 172.563C377.057 171.464 378.852 169.893 380.077 167.842L378.36 166.817C377.358 168.493 375.88 169.809 373.882 170.755L374.738 172.563ZM380.077 167.842C381.298 165.8 381.889 163.424 381.889 160.75H379.889C379.889 163.122 379.367 165.132 378.36 166.817L380.077 167.842ZM380.77 161.743L383.907 162.118L384.144 160.132L381.008 159.757L380.77 161.743ZM384.026 160.125H367.048V162.125H384.026V160.125ZM368.048 161.125V148.818H366.048V161.125H368.048ZM367.048 149.818H397.151V147.818H367.048V149.818ZM396.151 148.818V158.057H398.151V148.818H396.151ZM396.151 158.057C396.151 164.163 394.853 169.33 392.303 173.601L394.021 174.626C396.789 169.988 398.151 164.45 398.151 158.057H396.151ZM392.301 173.604C389.762 177.896 386.266 181.185 381.795 183.486L382.71 185.264C387.513 182.792 391.29 179.241 394.023 174.623L392.301 173.604ZM381.793 183.487C377.342 185.789 372.197 186.955 366.332 186.955V188.955C372.467 188.955 377.936 187.734 382.712 185.263L381.793 183.487ZM366.332 186.955C359.822 186.955 354.146 185.545 349.272 182.757L348.279 184.493C353.497 187.478 359.525 188.955 366.332 188.955V186.955ZM349.272 182.757C344.398 179.969 340.598 175.997 337.865 170.817L336.096 171.751C338.999 177.253 343.062 181.509 348.279 184.493L349.272 182.757ZM337.865 170.819C335.137 165.627 333.753 159.429 333.753 152.193H331.753C331.753 159.684 333.187 166.214 336.095 171.749L337.865 170.819ZM333.753 152.193C333.753 146.564 334.591 141.61 336.243 137.314L334.376 136.596C332.62 141.163 331.753 146.368 331.753 152.193H333.753ZM336.244 137.312C337.904 132.973 340.208 129.321 343.147 126.338L341.722 124.935C338.571 128.133 336.125 132.027 334.376 136.597L336.244 137.312ZM343.144 126.341C346.116 123.347 349.545 121.083 353.439 119.544L352.703 117.684C348.551 119.326 344.89 121.744 341.725 124.932L343.144 126.341ZM353.437 119.544C357.358 118.002 361.585 117.227 366.128 117.227V115.227C361.353 115.227 356.875 116.043 352.705 117.683L353.437 119.544ZM366.128 117.227C370.077 117.227 373.73 117.793 377.096 118.915L377.728 117.017C374.139 115.821 370.27 115.227 366.128 115.227V117.227ZM377.098 118.915C380.496 120.041 383.482 121.624 386.066 123.66L387.304 122.09C384.524 119.899 381.328 118.209 377.726 117.017L377.098 118.915ZM386.069 123.663C388.675 125.699 390.782 128.114 392.398 130.91L394.13 129.909C392.383 126.886 390.104 124.278 387.3 122.087L386.069 123.663ZM392.398 130.91C394.009 133.696 395.014 136.758 395.407 140.105L397.394 139.872C396.969 136.265 395.883 132.941 394.13 129.909L392.398 130.91ZM396.401 138.989H379.321V140.989H396.401V138.989Z" fill="white"/>
</svg>
