<svg width="303" height="72" viewBox="0 0 303 72" fill="none" xmlns="http://www.w3.org/2000/svg">
<path d="M21.1321 71L20.1719 71.2794L20.3816 72H21.1321V71ZM0.81392 1.18182V0.181816H-0.51858L-0.146247 1.46124L0.81392 1.18182ZM19.4616 1.18182L20.4361 0.957434L20.2576 0.181816H19.4616V1.18182ZM29.9957 46.9318L29.0212 47.1562L29.1998 47.9318H29.9957V46.9318ZM30.5753 46.9318V47.9318H31.3463L31.5424 47.1862L30.5753 46.9318ZM42.6094 1.18182V0.181816H41.8384L41.6423 0.927429L42.6094 1.18182ZM57.8139 1.18182L58.7812 0.92796L58.5853 0.181816H57.8139V1.18182ZM69.848 47.0341L68.8808 47.2879L69.0766 48.0341H69.848V47.0341ZM70.4276 47.0341V48.0341H71.2233L71.402 47.2587L70.4276 47.0341ZM80.9957 1.18182V0.181816H80.2L80.0213 0.957221L80.9957 1.18182ZM99.6094 1.18182L100.57 1.46081L100.941 0.181816H99.6094V1.18182ZM79.3253 71V72H80.0761L80.2856 71.279L79.3253 71ZM63.0639 71L62.1053 71.2848L62.3178 72H63.0639V71ZM50.4844 28.6591L51.443 28.3743L51.2305 27.6591H50.4844V28.6591ZM49.9389 28.6591V27.6591H49.1928L48.9803 28.3743L49.9389 28.6591ZM37.3594 71V72H38.1055L38.318 71.2848L37.3594 71ZM22.0923 70.7206L1.77409 0.902392L-0.146247 1.46124L20.1719 71.2794L22.0923 70.7206ZM0.81392 2.18182H19.4616V0.181816H0.81392V2.18182ZM18.4871 1.4062L29.0212 47.1562L30.9702 46.7074L20.4361 0.957434L18.4871 1.4062ZM29.9957 47.9318H30.5753V45.9318H29.9957V47.9318ZM31.5424 47.1862L43.5765 1.4362L41.6423 0.927429L29.6082 46.6774L31.5424 47.1862ZM42.6094 2.18182H57.8139V0.181816H42.6094V2.18182ZM56.8467 1.43567L68.8808 47.2879L70.8153 46.7802L58.7812 0.92796L56.8467 1.43567ZM69.848 48.0341H70.4276V46.0341H69.848V48.0341ZM71.402 47.2587L81.9702 1.40641L80.0213 0.957221L69.4531 46.8095L71.402 47.2587ZM80.9957 2.18182H99.6094V0.181816H80.9957V2.18182ZM98.6491 0.902825L78.365 70.721L80.2856 71.279L100.57 1.46081L98.6491 0.902825ZM79.3253 70H63.0639V72H79.3253V70ZM64.0225 70.7152L51.443 28.3743L49.5258 28.9439L62.1053 71.2848L64.0225 70.7152ZM50.4844 27.6591H49.9389V29.6591H50.4844V27.6591ZM48.9803 28.3743L36.4008 70.7152L38.318 71.2848L50.8975 28.9439L48.9803 28.3743ZM37.3594 70H21.1321V72H37.3594V70ZM163.922 55.625L163.047 55.1409L163.047 55.1409L163.922 55.625ZM151.922 67.7955L151.44 66.9191L151.439 66.92L151.922 67.7955ZM118.07 67.7614L118.556 66.8876L118.556 66.8876L118.07 67.7614ZM106.104 55.5909L105.227 56.0721L105.23 56.0766L106.104 55.5909ZM106.104 16.5568L105.229 16.0728L105.227 16.0756L106.104 16.5568ZM118.07 4.38636L118.553 5.26182L118.553 5.26182L118.07 4.38636ZM151.922 4.38636L151.439 5.26183L151.44 5.26274L151.922 4.38636ZM163.922 16.5568L163.047 17.0409L163.047 17.0409L163.922 16.5568ZM149.161 24.5682L148.234 24.9442L148.236 24.9499L149.161 24.5682ZM143.638 17.4432L143.078 18.2716L143.081 18.274L143.638 17.4432ZM126.388 17.4432L126.944 18.274L126.944 18.274L126.388 17.4432ZM120.831 24.5682L119.907 24.1864L119.904 24.1922L120.831 24.5682ZM120.831 47.6136L119.904 47.9897L119.907 47.9954L120.831 47.6136ZM126.388 54.7386L126.944 53.9078L126.944 53.9078L126.388 54.7386ZM143.638 54.7386L143.081 53.9078L143.078 53.9102L143.638 54.7386ZM149.161 47.6136L148.236 47.2319L148.234 47.2376L149.161 47.6136ZM167.354 36.0909C167.354 43.6464 165.901 49.9818 163.047 55.1409L164.797 56.1091C167.852 50.5864 169.354 43.899 169.354 36.0909H167.354ZM163.047 55.1409C160.178 60.3269 156.31 64.2429 151.44 66.9191L152.403 68.6718C157.625 65.8026 161.757 61.6049 164.797 56.1091L163.047 55.1409ZM151.439 66.92C146.577 69.6039 141.109 70.9545 135.013 70.9545V72.9545C141.416 72.9545 147.221 71.5325 152.405 68.6709L151.439 66.92ZM135.013 70.9545C128.894 70.9545 123.417 69.5928 118.556 66.8876L117.583 68.6351C122.768 71.5208 128.586 72.9545 135.013 72.9545V70.9545ZM118.556 66.8876C113.706 64.1882 109.847 60.2704 106.978 55.1053L105.23 56.0766C108.269 61.5478 112.388 65.7436 117.583 68.6351L118.556 66.8876ZM106.98 55.1097C104.148 49.9495 102.706 43.6242 102.706 36.0909H100.706C100.706 43.8758 102.196 50.5505 105.227 56.0721L106.98 55.1097ZM102.706 36.0909C102.706 28.5343 104.148 22.1978 106.98 17.038L105.227 16.0756C102.196 21.5976 100.706 28.2839 100.706 36.0909H102.706ZM106.979 17.0409C109.848 11.8537 113.706 7.93768 118.553 5.26182L117.586 3.5109C112.388 6.3805 108.268 10.5781 105.229 16.0728L106.979 17.0409ZM118.553 5.26182C123.414 2.57826 128.893 1.22727 135.013 1.22727V-0.77273C128.587 -0.77273 122.771 0.649006 117.586 3.5109L118.553 5.26182ZM135.013 1.22727C141.109 1.22727 146.577 2.57796 151.439 5.26182L152.405 3.5109C147.221 0.649303 141.416 -0.77273 135.013 -0.77273V1.22727ZM151.44 5.26274C156.31 7.93892 160.178 11.8549 163.047 17.0409L164.797 16.0728C161.757 10.5769 157.625 6.37926 152.403 3.50998L151.44 5.26274ZM163.047 17.0409C165.901 22.2001 167.354 28.5354 167.354 36.0909H169.354C169.354 28.2828 167.852 21.5954 164.797 16.0728L163.047 17.0409ZM152.104 36.0909C152.104 31.4564 151.444 27.4774 150.085 24.1864L148.236 24.9499C149.468 27.9317 150.104 31.6345 150.104 36.0909H152.104ZM150.087 24.1922C148.752 20.9024 146.796 18.3549 144.194 16.6123L143.081 18.274C145.298 19.7588 147.023 21.9612 148.234 24.9442L150.087 24.1922ZM144.198 16.6148C141.62 14.8715 138.542 14.0227 135.013 14.0227V16.0227C138.211 16.0227 140.883 16.7876 143.078 18.2716L144.198 16.6148ZM135.013 14.0227C131.505 14.0227 128.429 14.8723 125.831 16.6123L126.944 18.274C129.165 16.7867 131.839 16.0227 135.013 16.0227V14.0227ZM125.831 16.6123C123.231 18.3537 121.264 20.8991 119.907 24.1864L121.755 24.9499C122.988 21.9645 124.726 19.7599 126.944 18.274L125.831 16.6123ZM119.904 24.1922C118.57 27.4813 117.922 31.4582 117.922 36.0909H119.922C119.922 31.6327 120.547 27.9278 121.758 24.9442L119.904 24.1922ZM117.922 36.0909C117.922 40.7236 118.57 44.7005 119.904 47.9897L121.758 47.2376C120.547 44.254 119.922 40.5491 119.922 36.0909H117.922ZM119.907 47.9954C121.264 51.2827 123.231 53.8281 125.831 55.5695L126.944 53.9078C124.726 52.4219 122.988 50.2173 121.755 47.2319L119.907 47.9954ZM125.831 55.5695C128.429 57.3095 131.505 58.1591 135.013 58.1591V56.1591C131.839 56.1591 129.165 55.3951 126.944 53.9078L125.831 55.5695ZM135.013 58.1591C138.542 58.1591 141.62 57.3103 144.198 55.567L143.078 53.9102C140.883 55.3943 138.211 56.1591 135.013 56.1591V58.1591ZM144.194 55.5695C146.796 53.827 148.752 51.2794 150.087 47.9897L148.234 47.2376C147.023 50.2206 145.298 52.423 143.081 53.9078L144.194 55.5695ZM150.085 47.9954C151.444 44.7044 152.104 40.7254 152.104 36.0909H150.104C150.104 40.5473 149.468 44.2501 148.236 47.2319L150.085 47.9954ZM178.206 71H177.206V72H178.206V71ZM178.206 1.18182V0.181816H177.206V1.18182H178.206ZM220.581 4.01136L220.136 4.90688L220.142 4.91003L220.581 4.01136ZM229.411 12.0568L228.55 12.5655L228.551 12.568L229.411 12.0568ZM229.342 36.7727L230.189 37.3048L230.191 37.3022L229.342 36.7727ZM220.342 44.4773L220.753 45.3891L220.757 45.3871L220.342 44.4773ZM188.297 47.1023H187.297V48.1023H188.297V47.1023ZM188.297 33.8068V32.8068H187.297V33.8068H188.297ZM209.774 32.8182L210.135 33.7509L210.141 33.7483L209.774 32.8182ZM213.695 29.75L214.533 30.295L214.537 30.2887L213.695 29.75ZM213.695 19.0795L212.844 19.6059L212.848 19.612L213.695 19.0795ZM209.774 15.875L209.386 16.7967L209.396 16.8009L209.774 15.875ZM195.081 14.7841V13.7841H194.081V14.7841H195.081ZM195.081 71V72H196.081V71H195.081ZM217.513 39.0909L218.391 38.6125L218.107 38.0909H217.513V39.0909ZM234.899 71V72H236.583L235.777 70.5215L234.899 71ZM216.49 71L215.608 71.4712L215.891 72H216.49V71ZM199.445 39.0909V38.0909H197.777L198.563 39.5621L199.445 39.0909ZM179.206 71V1.18182H177.206V71H179.206ZM178.206 2.18182H207.047V0.181816H178.206V2.18182ZM207.047 2.18182C212.155 2.18182 216.507 3.1034 220.136 4.90686L221.026 3.11587C217.064 1.1466 212.393 0.181816 207.047 0.181816V2.18182ZM220.142 4.91003C223.793 6.6919 226.586 9.24189 228.55 12.5655L230.271 11.5481C228.099 7.87174 225.005 5.0581 221.02 3.1127L220.142 4.91003ZM228.551 12.568C230.512 15.8648 231.513 19.8064 231.513 24.4318H233.513C233.513 19.5118 232.445 15.2034 230.27 11.5456L228.551 12.568ZM231.513 24.4318C231.513 29.1255 230.489 33.0465 228.494 36.2432L230.191 37.3022C232.423 33.7262 233.513 29.4199 233.513 24.4318H231.513ZM228.496 36.2407C226.494 39.4264 223.65 41.8694 219.927 43.5675L220.757 45.3871C224.807 43.5397 227.964 40.8464 230.189 37.3048L228.496 36.2407ZM219.932 43.5655C216.202 45.2448 211.746 46.1023 206.536 46.1023V48.1023C211.961 48.1023 216.71 47.2097 220.753 45.3891L219.932 43.5655ZM206.536 46.1023H188.297V48.1023H206.536V46.1023ZM189.297 47.1023V33.8068H187.297V47.1023H189.297ZM188.297 34.8068H203.399V32.8068H188.297V34.8068ZM203.399 34.8068C206.023 34.8068 208.28 34.4682 210.135 33.7509L209.414 31.8855C207.86 32.4863 205.866 32.8068 203.399 32.8068V34.8068ZM210.141 33.7483C212.033 33.0014 213.518 31.8569 214.533 30.295L212.856 29.205C212.099 30.3704 210.969 31.2713 209.407 31.888L210.141 33.7483ZM214.537 30.2887C215.554 28.6984 216.024 26.7233 216.024 24.4318H214.024C214.024 26.4585 213.608 28.0289 212.852 29.2113L214.537 30.2887ZM216.024 24.4318C216.024 22.1394 215.553 20.1566 214.541 18.5471L212.848 19.612C213.608 20.8207 214.024 22.4061 214.024 24.4318H216.024ZM214.545 18.5532C213.535 16.9222 212.053 15.7244 210.152 14.9491L209.396 16.8009C210.95 17.4346 212.081 18.3732 212.844 19.6059L214.545 18.5532ZM210.162 14.9534C208.278 14.1598 206.012 13.7841 203.399 13.7841V15.7841C205.832 15.7841 207.816 16.1356 209.386 16.7966L210.162 14.9534ZM203.399 13.7841H195.081V15.7841H203.399V13.7841ZM194.081 14.7841V71H196.081V14.7841H194.081ZM195.081 70H178.206V72H195.081V70ZM216.635 39.5694L234.021 71.4785L235.777 70.5215L218.391 38.6125L216.635 39.5694ZM234.899 70H216.49V72H234.899V70ZM217.372 70.5288L200.327 38.6197L198.563 39.5621L215.608 71.4712L217.372 70.5288ZM199.445 40.0909H217.513V38.0909H199.445V40.0909ZM241.768 71H240.768V72H241.768V71ZM241.768 1.18182V0.181816H240.768V1.18182H241.768ZM258.643 1.18182H259.643V0.181816H258.643V1.18182ZM258.643 30.7045H257.643V31.7045H258.643V30.7045ZM259.564 30.7045V31.7045H260.051L260.352 31.3204L259.564 30.7045ZM282.643 1.18182V0.181816H282.156L281.856 0.565925L282.643 1.18182ZM302.518 1.18182L303.302 1.80379L304.59 0.181816H302.518V1.18182ZM277.768 32.3409L276.985 31.7189L276.537 32.2832L276.931 32.8869L277.768 32.3409ZM302.962 71V72H304.807L303.799 70.454L302.962 71ZM282.78 71L281.935 71.5352L282.23 72H282.78V71ZM265.393 43.5568L266.238 43.0216L265.484 41.8315L264.61 42.936L265.393 43.5568ZM258.643 52.0795L257.86 51.4587L257.643 51.7315V52.0795H258.643ZM258.643 71V72H259.643V71H258.643ZM242.768 71V1.18182H240.768V71H242.768ZM241.768 2.18182H258.643V0.181816H241.768V2.18182ZM257.643 1.18182V30.7045H259.643V1.18182H257.643ZM258.643 31.7045H259.564V29.7045H258.643V31.7045ZM260.352 31.3204L283.431 1.79771L281.856 0.565925L258.776 30.0887L260.352 31.3204ZM282.643 2.18182H302.518V0.181816H282.643V2.18182ZM301.735 0.559841L276.985 31.7189L278.552 32.9629L303.302 1.80379L301.735 0.559841ZM276.931 32.8869L302.124 71.546L303.799 70.454L278.606 31.7949L276.931 32.8869ZM302.962 70H282.78V72H302.962V70ZM283.625 70.4648L266.238 43.0216L264.549 44.092L281.935 71.5352L283.625 70.4648ZM264.61 42.936L257.86 51.4587L259.427 52.7004L266.177 44.1777L264.61 42.936ZM257.643 52.0795V71H259.643V52.0795H257.643ZM258.643 70H241.768V72H258.643V70Z" fill="white"/>
</svg>
